<svg xmlns="http://www.w3.org/2000/svg" width="18.503" height="17.942" viewBox="0 0 18.503 17.942">
  <path id="Pfad_13" data-name="Pfad 13" d="M230.719,227.547h-1.053v8.931a.511.511,0,0,1-.51.51h-4.191a.267.267,0,0,1-.266-.266v-4.984a.267.267,0,0,0-.266-.266h-5.169a.267.267,0,0,0-.266.266v4.984a.267.267,0,0,1-.266.266H214.54a.511.511,0,0,1-.51-.51v-8.931h-1.053a.38.38,0,0,1-.25-.666l8.871-7.742a.379.379,0,0,1,.5,0l8.871,7.742A.38.38,0,0,1,230.719,227.547Z" transform="translate(-212.596 -219.046)" fill="#fff"/>
</svg>
